<svg aria-hidden="true" style="position: absolute; width: 0; height: 0; overflow: hidden;" version="1.1" xmlns="http://www.w3.org/2000/svg" xmlns:xlink="http://www.w3.org/1999/xlink">
<defs>
<symbol id="icon-a_icon_arrow" viewBox="0 0 32 32">
    <path fill="none" opacity="0.4" stroke="#3e4056" style="stroke: var(--color1, #3e4056)" stroke-linejoin="round" stroke-linecap="round" stroke-miterlimit="4" stroke-width="4" d="M8 12l8 8 8-8"></path>
</symbol>

<symbol id="icon-medium" viewBox="0 0 32 32">
    <path fill="#eff3f6" style="fill: var(--color2, #eff3f6)" opacity="0.01" d="M0 0h32v32h-32v-32z"></path>
    <path fill="#3e3f58" style="fill: var(--color3, #3e3f58)" d="M9.897 11.652c0.020-0.201-0.055-0.4-0.202-0.535l-1.494-1.842v-0.275h4.639l3.585 8.048 3.152-8.048h4.422v0.275l-1.277 1.253c-0.11 0.086-0.165 0.227-0.142 0.367v9.209c-0.023 0.14 0.032 0.281 0.142 0.367l1.247 1.253v0.275h-6.274v-0.275l1.292-1.284c0.127-0.13 0.127-0.168 0.127-0.367v-7.444l-3.593 9.339h-0.486l-4.183-9.339v6.259c-0.035 0.263 0.050 0.528 0.232 0.718l1.681 2.086v0.275h-4.766v-0.275l1.681-2.086c0.18-0.191 0.26-0.457 0.217-0.718v-7.238z"></path>
</symbol>

<svg id="icon-notifications" width="32" height="32" fill="none" xmlns="http://www.w3.org/2000/svg"><g opacity=".98">
    <path opacity=".01" fill="#EFF3F6" d="M0 0h32v32H0z"/><mask id="a" fill="#fff">
    <path fill-rule="evenodd" clip-rule="evenodd" d="M17.647 22.4c0 .88-.741 1.6-1.647 1.6s-1.647-.72-1.647-1.6h3.294ZM16 11.512l-.787.181c-1.515.349-2.566 1.643-2.566 3.107V19.6h8.317l.389-.4.412.4L23 20.8v.8H9v-.8l1.235-1.2.412-.4v-4.4c0-2.456 1.754-4.512 4.118-5.056V9.2c0-.664.551-1.2 1.235-1.2.683 0 1.235.536 1.235 1.2v.544c2.364.544 4.118 2.6 4.118 5.056v4.4h-2v-4.4c0-1.464-1.05-2.758-2.566-3.107L16 11.512Z"/></mask><path d="M17.647 22.4h2v-2h-2v2Zm-3.294 0v-2h-2v2h2Zm.86-10.707.449 1.95-.449-1.95Zm.787-.181.449-1.95L16 9.46l-.449.103.449 1.949ZM12.647 19.6h-2v2h2v-2Zm8.317 0v2h.846l.589-.606-1.435-1.394Zm.8 0-1.393 1.435 1.394-1.435ZM23 20.8h2v-.846l-.606-.589L23 20.8Zm0 .8v2h2v-2h-2Zm-14 0H7v2h2v-2Zm0-.8-1.394-1.435-.606.59v.845h2Zm1.235-1.2-1.393-1.435 1.393 1.435Zm.412-.4 1.394 1.435.606-.59V19.2h-2Zm4.118-9.456.448 1.949 1.552-.357V9.744h-2Zm2.47 0h-2v1.592l1.552.357.448-1.949Zm2.118 9.456h-2v2h2v-2Zm-2.566-7.507-.449 1.95.449-1.95ZM16 26c1.955 0 3.647-1.561 3.647-3.6h-4c0-.279.21-.4.353-.4v4Zm-3.647-3.6c0 2.039 1.692 3.6 3.647 3.6v-4c.144 0 .353.121.353.4h-4Zm3.294-2h-1.294v4h1.294v-4Zm.353 0h-.353v4H16v-4Zm.353 0H16v4h.353v-4Zm1.294 0h-1.294v4h1.294v-4Zm-1.985-6.758.787-.181-.898-3.898-.786.181.897 3.898ZM14.647 14.8c0-.48.355-1.006 1.015-1.158l-.897-3.898c-2.372.546-4.118 2.607-4.118 5.056h4Zm0 4.4v-4.4h-4v4.4h4Zm0 .4v-.4h-4v.4h4Zm6.317-2h-8.317v4h8.317v-4Zm-1.046.206-.388.4 2.869 2.788.389-.4-2.87-2.788Zm3.24.36-.412-.4-2.787 2.869.412.4 2.787-2.87Zm1.236 1.2-1.236-1.2-2.787 2.869 1.235 1.2 2.788-2.87ZM25 21.6v-.8h-4v.8h4Zm-2.777 2H23v-4h-.777v4ZM21 23.6h1.223v-4H21v4Zm-.047 0H21v-4h-.047v4Zm-9.906 0h9.906v-4h-9.906v4Zm-.047 0h.047v-4H11v4Zm-1.223 0H11v-4H9.777v4ZM9 23.6h.777v-4H9v4Zm-2-2.8v.8h4v-.8H7Zm1.842-2.635-1.236 1.2 2.788 2.87 1.235-1.2-2.787-2.87Zm.411-.4-.411.4 2.787 2.87.412-.4-2.788-2.87ZM8.647 14.8v4.4h4v-4.4h-4Zm5.67-7.005c-3.212.74-5.67 3.557-5.67 7.005h4c0-1.464 1.05-2.758 2.566-3.107l-.897-3.898ZM12.764 9.2v.544h4V9.2h-4ZM16 6c-1.733 0-3.235 1.377-3.235 3.2h4c0 .495-.399.8-.765.8V6Zm3.235 3.2C19.235 7.377 17.733 6 16 6v4a.784.784 0 0 1-.765-.8h4Zm0 .544V9.2h-4v.544h4Zm4.118 5.056c0-3.448-2.458-6.266-5.67-7.005l-.896 3.898c1.515.349 2.566 1.643 2.566 3.107h4Zm0 4.4v-4.4h-4v4.4h4Zm-4 2h2v-4h-2v4Zm-2-6.4v4.4h4v-4.4h-4Zm-1.015-1.158c.66.152 1.015.678 1.015 1.158h4c0-2.449-1.747-4.51-4.118-5.056l-.897 3.898Zm-.787-.181.787.181.897-3.898-.786-.181-.898 3.898Z" fill="#3E4056" mask="url(#a)"/></g>
</svg>

<svg id="icon-share-recap" width="32" height="32" fill="none" xmlns="http://www.w3.org/2000/svg"><g opacity=".98">
    <path opacity=".01" fill="#EFF3F6" d="M0 0h32v32H0z"/><rect x="10" y="12" width="12" height="10" rx="2" stroke="#3E4056" stroke-width="2"/><path clip-rule="evenodd" d="M12.424 12.471c1.082.394 3.047.156 3.425-.882.378-1.037-.975-2.483-2.056-2.876-1.082-.394-2.264.128-2.642 1.166-.378 1.038.192 2.199 1.273 2.592Z" stroke="#3E4056" stroke-width="2"/>
    <path clip-rule="evenodd" d="M19.576 12.471c-1.082.394-3.047.156-3.425-.882-.378-1.037.975-2.483 2.056-2.876 1.082-.394 2.264.128 2.642 1.166.378 1.038-.192 2.199-1.273 2.592Z" stroke="#3E4056" stroke-width="2"/><path fill="#3E4056" d="M15 12h2v10h-2z"/><g fill="#fff"><mask id="a"><path d="M8 13a2 2 0 0 1 2-2h12a2 2 0 0 1 2 2v3a1 1 0 0 1-1 1H9a1 1 0 0 1-1-1v-3Z"/></mask><path d="M8 13a2 2 0 0 1 2-2h12a2 2 0 0 1 2 2v3a1 1 0 0 1-1 1H9a1 1 0 0 1-1-1v-3Z" stroke="#3E4056" stroke-width="4" mask="url(#a)"/></g></g>
</svg>
</defs>

<svg id="icon-edit-icon" version="1.1" xmlns="http://www.w3.org/2000/svg" width="1024" height="1024" viewBox="0 0 1024 1024">
<g id="icomoon-ignore">
</g>
<path d="M557.891 174.808c39.992-39.99 104.827-39.99 144.819 0l144.814 144.816c39.987 39.99 39.987 104.826 0 144.816l-355.76 355.76c-4.214 4.214-9.765 6.825-15.697 7.383l-190.244 17.951c-64.532 6.088-118.415-48.553-111.421-112.993l20.239-186.491c0.63-5.801 3.223-11.213 7.349-15.34l355.901-355.901zM594.058 283.459c19.994-19.995 52.408-19.995 72.407 0l72.407 72.408c19.994 19.995 19.994 52.413 0 72.408l-36.244 36.244-144.814-144.816 36.244-36.244zM485.365 392.151l-181.093 181.094-21.189 105.743c-7.181 35.835 24.422 67.441 60.261 60.257l105.743-21.187 181.093-181.094-144.815-144.814z"></path>
</svg>

<svg aria-hidden="true" style="position: absolute; width: 0; height: 0; overflow: hidden;" version="1.1" xmlns="http://www.w3.org/2000/svg" xmlns:xlink="http://www.w3.org/1999/xlink">
<defs>
<symbol id="icon-icon_like" viewBox="0 0 37 32">
<path d="M18.286 18.499c-1.875 2.654-4.782 4.358-8.046 4.358-5.655 0-10.24-5.117-10.24-11.429s4.585-11.429 10.24-11.429c3.264 0 6.171 1.704 8.046 4.358 1.875-2.654 4.782-4.358 8.046-4.358 5.655 0 10.24 5.117 10.24 11.429s-4.585 11.429-10.24 11.429c-3.264 0-6.171-1.704-8.046-4.358z"></path>
<path d="M0 0h36.571v36.571h-36.571v-36.571z"></path>
<path d="M0 0h36.571v36.571h-36.571v-36.571z"></path>
</symbol>
</defs>
</svg>


